<svg width="390" height="364" viewBox="0 0 390 364" fill="none" xmlns="http://www.w3.org/2000/svg">
<g clip-path="url(#clip0)">
<path d="M373.444 54.1428L371.098 50.2602C351.326 17.532 315.578 -2.19791 277.888 0.195679C273.043 0.503937 268.219 1.16312 263.459 2.18604C229.19 9.5545 199.372 35.5851 187.014 68.9223C179.744 88.5285 177.714 111.103 163.92 126.666C145.968 146.919 115.49 147.555 88.6948 146.717C61.898 145.877 31.4006 146.593 13.5354 166.927C2.34735 179.661 -1.20783 197.771 -0.306283 214.825C2.08296 259.977 33.4044 300.35 73.239 320.417C113.072 340.485 159.973 342.281 203.568 333.455C264.641 321.088 322.72 287.127 357.629 234.674C392.54 182.22 401.376 110.758 373.444 54.1428Z" fill="#F5F9FD"/>
<path d="M74.1902 25.5036C74.1902 24.1216 75.3045 23 76.6866 23C78.0686 23 79.1902 24.1216 79.1902 25.5036C79.1902 26.8784 78.0686 28 76.6866 28C75.3045 28 74.1902 26.8784 74.1902 25.5036Z" fill="#5373E5"/>
<path d="M88.7245 27.8423C89.3975 26.6337 90.9172 26.1995 92.1257 26.8725C93.3343 27.5455 93.7685 29.0652 93.0955 30.2738C92.4297 31.4751 90.9028 31.9093 89.6942 31.2435C88.493 30.5705 88.0587 29.0508 88.7245 27.8423Z" fill="#5373E5"/>
<path d="M100.227 36.4344C101.384 35.689 102.933 36.0218 103.678 37.1871C104.431 38.3451 104.091 39.894 102.933 40.6395C101.775 41.3849 100.227 41.052 99.4814 39.894C98.7289 38.736 99.0617 37.1871 100.227 36.4344Z" fill="#5373E5"/>
<path d="M107.508 51.4443C108.883 51.4443 110.005 52.5659 110.005 53.9479C110.005 55.33 108.883 56.4443 107.508 56.4443C106.126 56.4443 105.005 55.33 105.005 53.9479C105.005 52.5659 106.126 51.4443 107.508 51.4443Z" fill="#5373E5"/>
<path d="M104.537 68.7646C105.507 69.7418 105.507 71.327 104.537 72.3042C103.56 73.2814 101.974 73.2814 100.997 72.3042C100.02 71.327 100.02 69.7418 100.997 68.7646C101.974 67.7946 103.56 67.7946 104.537 68.7646Z" fill="#5373E5"/>
<path d="M93.8643 79.4368C94.8418 80.4071 94.8418 81.9929 93.8643 82.9704C92.8867 83.948 91.3009 83.948 90.3306 82.9704C89.353 81.9929 89.353 80.4071 90.3306 79.4368C91.3009 78.4592 92.8867 78.4592 93.8643 79.4368Z" fill="#5373E5"/>
<path d="M74.1902 85.948C74.1902 84.5659 75.3045 83.4443 76.6866 83.4443C78.0686 83.4443 79.1902 84.5659 79.1902 85.948C79.1902 87.3228 78.0686 88.4443 76.6866 88.4443C75.3045 88.4443 74.1902 87.3228 74.1902 85.948Z" fill="#5373E5"/>
<path d="M64.6526 27.8423C63.98 26.6337 62.4613 26.1995 61.2535 26.8725C60.0457 27.5455 59.6119 29.0652 60.2844 30.2738C60.957 31.4751 62.4758 31.9093 63.6835 31.2435C64.8841 30.5705 65.3252 29.0508 64.6526 27.8423Z" fill="#5373E5"/>
<path d="M53.1582 36.4344C51.9931 35.689 50.4443 36.0218 49.6989 37.1871C48.9535 38.3451 49.2864 39.894 50.4443 40.6395C51.6022 41.3849 53.151 41.052 53.9036 39.894C54.6491 38.736 54.3162 37.1871 53.1582 36.4344Z" fill="#5373E5"/>
<path d="M47.0642 51.4443C45.6821 51.4443 44.5605 52.5659 44.5605 53.9479C44.5605 55.33 45.6821 56.4443 47.0642 56.4443C48.439 56.4443 49.5605 55.33 49.5605 53.9479C49.5605 52.5659 48.439 51.4443 47.0642 51.4443Z" fill="#5373E5"/>
<path d="M48.8491 68.7646C47.8716 69.7418 47.8716 71.327 48.8491 72.3042C49.8267 73.2814 51.4052 73.2814 52.3828 72.3042C53.3604 71.327 53.3604 69.7418 52.3828 68.7646C51.4052 67.7946 49.8267 67.7946 48.8491 68.7646Z" fill="#5373E5"/>
<path d="M59.5148 79.4368C58.5387 80.4071 58.5387 81.9929 59.5148 82.9704C60.4909 83.948 62.0745 83.948 63.0506 82.9704C64.0267 81.9929 64.0267 80.4071 63.0506 79.4368C62.0745 78.4592 60.4909 78.4592 59.5148 79.4368Z" fill="#5373E5"/>
<path d="M74.5605 56.5036C74.5605 55.1215 75.6821 54 77.0569 54C78.439 54 79.5605 55.1215 79.5605 56.5036C79.5605 57.8857 78.439 59 77.0569 59C75.6821 59 74.5605 57.8857 74.5605 56.5036Z" fill="#5373E5"/>
<path d="M77.7457 55.6294H76.5605V34.2961H77.7457V55.6294Z" fill="#5373E5"/>
<path d="M77.4868 56.8149L76.5605 55.6368L88.6766 46.1483L89.5976 47.3265L77.4868 56.8149Z" fill="#5373E5"/>
<ellipse cx="264.561" cy="362" rx="32" ry="2" fill="#9CB1CB"/>
<path fill-rule="evenodd" clip-rule="evenodd" d="M264.93 363H264.779C263.88 363 263.141 362.343 263.089 361.503L260.705 269.558H218.034V269.352H206.659C204.045 269.352 201.927 267.235 201.927 264.623V263.526C201.927 260.91 204.045 258.794 206.659 258.794H226.463V191.916C226.463 180.151 236.011 170.609 247.791 170.609H296.02C307.797 170.609 317.348 180.151 317.348 191.916L317.534 259L317.531 259H317.561V263.159C317.561 266.692 314.692 269.558 311.156 269.558H267.508L266.494 361.495C266.516 362.322 265.807 363 264.93 363Z" fill="#BED1E8"/>
<path d="M208.924 242.129C215.832 254.144 224.523 258.782 224.523 258.782H260.677C260.677 258.782 203.654 232.968 208.924 242.129Z" fill="#000823"/>
<path d="M236.689 335.082C237.631 336.159 237.754 337.367 237.287 338.652C237.287 338.656 237.283 338.664 237.279 338.668C236.414 341.051 233.567 343.708 230.256 346.365C229.834 346.704 229.457 347.015 229.129 347.302C229.043 347.376 228.957 347.453 228.879 347.527C228.809 347.589 228.748 347.65 228.682 347.703C225.597 350.544 226.76 351.195 221.216 356.963C214.894 363.533 210.542 363.652 209.305 363.054C208.256 362.543 210.382 359.059 212.742 355.141C212.857 354.953 212.968 354.761 213.087 354.572C213.398 354.048 213.714 353.52 214.025 352.996C216.787 348.284 216.078 346.074 215.422 339.057C214.89 333.355 206.543 307.209 206.543 307.209L218.659 305.121C218.659 305.121 222.306 325.945 226.326 329.151C228.473 330.862 230.883 330.882 232.948 332.147C233.091 332.237 233.235 332.327 233.374 332.422C234.55 333.199 235.746 334.002 236.689 335.082Z" fill="#FFBD9A"/>
<path d="M236.689 335.083C237.631 336.159 237.754 337.367 237.287 338.652C237.287 338.656 237.283 338.664 237.279 338.669C236.222 341.047 233.444 343.691 230.248 346.34C229.83 346.688 229.461 347.003 229.129 347.302C229.043 347.376 228.957 347.453 228.879 347.527C228.809 347.589 228.748 347.65 228.682 347.703C225.597 350.544 226.76 351.195 221.216 356.963C214.894 363.533 210.542 363.652 209.305 363.054C208.256 362.543 210.382 359.059 212.743 355.141C213.972 354.691 219.688 352.37 224.011 346.848C227.818 341.997 230.354 335.762 232.948 332.147C233.091 332.237 233.235 332.327 233.374 332.422C234.55 333.199 235.746 334.002 236.689 335.083Z" fill="#011043"/>
<path d="M277.206 76.2093C268.425 64.583 259.169 66.2255 252.746 69.0348C246.322 71.8449 242.008 78.9231 242.435 85.9533C242.548 87.8099 242.943 89.7655 242.191 91.4656C240.984 94.1997 237.469 94.9702 235.433 97.1527C232.651 100.138 233.267 104.863 234.207 108.843C235.147 112.823 236.137 117.367 233.809 120.723C231.677 123.797 227.611 124.62 224.259 126.257C219.829 128.419 216.267 132.455 214.982 137.234C213.696 142.014 214.828 147.457 218.158 151.104C221.417 154.675 226.312 156.258 231.079 156.964C244.954 159.019 259.651 154.518 270.03 145.034C280.409 135.549 286.267 121.268 285.557 107.184L277.206 76.2093Z" fill="#17282F"/>
<path d="M277.114 102.238C276.343 109.356 276.082 122.298 281.413 126.544C281.413 126.544 275.717 132.322 264.202 138.701C255.826 132.946 259.535 128.427 259.535 128.427C267.222 125.888 266.517 120.115 264.677 114.795L277.114 102.238Z" fill="#FFBF9D"/>
<path d="M265.693 118.591C268.654 117.901 272.938 114.842 272.984 111.695C273.009 110.125 272.36 108.066 272.041 107.362L266.565 112.887L264.68 114.79C265.083 115.946 265.427 117.121 265.637 118.282C265.657 118.385 265.675 118.489 265.693 118.591Z" fill="#DC834C"/>
<path d="M278.611 87.2962C279.465 99.0146 280.077 103.957 274.98 110.712C267.312 120.872 252.648 119.35 248.29 108.121C244.369 98.0137 243.634 80.5475 254.451 74.3931C265.108 68.3307 277.76 75.5779 278.611 87.2962Z" fill="#FFBF9D"/>
<path d="M268.831 80.2908C258.957 85.399 243.988 89.4331 245.654 82.8442C247.899 73.9605 258.713 67.445 272.026 72.2054C276.917 75.0491 270.251 81.7244 268.831 80.2908Z" fill="#17282F"/>
<path d="M282.82 96.7086C282.455 99.1168 281.006 101.135 279.368 102.297C276.905 104.046 274.643 102.102 274.468 99.2541C274.311 96.6913 275.403 92.6919 278.291 92.0722C281.135 91.4618 283.237 93.954 282.82 96.7086Z" fill="#FFBF9D"/>
<path d="M260.167 93.1208C260.295 94.067 259.895 94.9013 259.272 94.9839C258.65 95.0679 258.041 94.3682 257.914 93.422C257.785 92.4744 258.186 91.6401 258.808 91.5575C259.431 91.4736 260.039 92.1732 260.167 93.1208Z" fill="#17282F"/>
<path d="M249.399 94.5571C249.527 95.5034 249.126 96.339 248.504 96.4216C247.882 96.5042 247.273 95.8046 247.146 94.8583C247.019 93.9121 247.42 93.0778 248.041 92.9952C248.663 92.9113 249.272 93.6109 249.399 94.5571Z" fill="#17282F"/>
<path d="M248.327 93.0126L245.952 92.6621C245.952 92.6621 247.366 94.2813 248.327 93.0126Z" fill="#17282F"/>
<path d="M253.631 95.5966C253.631 95.5966 252.566 99.8878 251.053 102.091C252.469 103.089 254.533 102.269 254.533 102.269L253.631 95.5966Z" fill="#F1A881"/>
<path d="M260.098 105.109C263.257 104.042 264.466 101.588 264.523 101.468L264.412 101.158L264.1 101.267C264.082 101.299 262.499 104.488 258.312 105.047C258.177 105.061 258.094 105.18 258.11 105.308C258.127 105.434 258.245 105.525 258.374 105.508C259.002 105.424 259.577 105.285 260.098 105.109Z" fill="#17282F"/>
<path d="M265.039 87.6361L265.248 87.4934C265.415 87.2962 265.389 87.003 265.191 86.8364C262.842 84.8734 260.39 85.5797 260.285 85.6103C260.03 85.709 259.899 85.9449 259.973 86.1901C260.046 86.4366 260.308 86.5766 260.556 86.5046C260.64 86.4793 262.639 85.9222 264.586 87.5507C264.716 87.66 264.889 87.6854 265.039 87.6361Z" fill="#17282F"/>
<path d="M244.886 90.4845L245.083 90.3552C246.803 88.4601 248.908 88.7653 248.93 88.768C249.186 88.808 249.426 88.6334 249.465 88.3802C249.505 88.1269 249.332 87.8884 249.075 87.8471C248.969 87.8311 246.441 87.4646 244.386 89.7315C244.213 89.9221 244.229 90.2179 244.421 90.3898C244.551 90.5071 244.73 90.5378 244.886 90.4845Z" fill="#17282F"/>
<path d="M259.085 91.5741L256.71 91.2236C256.71 91.2236 258.123 92.8429 259.085 91.5741Z" fill="#17282F"/>
<path d="M251.857 70.1614C251.861 70.2324 253.068 70.0485 254.984 70.3386C256.906 70.5914 259.446 71.4603 262.251 72.4455C265.059 73.4286 267.763 73.9757 269.738 73.8472C270.721 73.7972 271.507 73.6376 272.03 73.4699C272.553 73.3062 272.827 73.173 272.82 73.1561C272.801 73.0797 271.666 73.5699 269.731 73.5983C267.797 73.6599 265.158 73.0892 262.364 72.1121C259.569 71.1303 256.979 70.2851 255.016 70.0918C254.041 69.9809 253.243 69.9809 252.698 70.0309C252.152 70.0782 251.855 70.1418 251.857 70.1614Z" fill="#33535F"/>
<path d="M139.014 327.522C138.265 331.26 132.934 330.637 126.98 329.18C121.026 327.727 122.44 329.458 113.966 328.521C105.492 327.583 102.923 324.423 102.664 323.166C102.435 322.049 106.623 321.656 111.114 321.14C111.679 321.075 112.245 321.005 112.814 320.935C117.883 320.301 121.595 317.03 126.205 314.345C130.569 311.802 137.08 301.441 137.08 301.441L148.701 302.358C148.701 302.358 142.604 311.614 140.244 315.638C138.855 318.004 138.928 321.136 139.1 323.551C139.191 324.865 139.277 326.208 139.014 327.522Z" fill="#FFBD9A"/>
<path d="M126.98 329.18C121.026 327.727 122.439 329.458 113.966 328.521C105.492 327.583 102.922 324.423 102.664 323.166C102.435 322.049 106.623 321.656 111.114 321.14L111.155 321.226C111.155 321.226 116.236 324.824 123.292 324.992C129.041 325.131 135.13 323.486 139.1 323.551C139.19 324.865 139.277 326.208 139.014 327.522C138.264 331.259 132.933 330.637 126.98 329.18Z" fill="#011043"/>
<path d="M183.556 253.276L194.418 282.484L208.604 320.625C208.604 320.625 212.452 320.993 216.14 319.937C219.533 318.955 223.429 316.392 223.429 316.392C223.429 316.392 219.488 275.443 212.141 251.937C210.26 245.903 208.149 241.024 205.818 238.273C194.431 224.825 183.556 253.276 183.556 253.276Z" fill="#000823"/>
<path d="M194.603 206.891C201.72 204.598 222.02 207.542 242.413 211.529L246.683 204.492L290.737 201.057C290.737 201.057 305.271 233.262 297.313 253.779C296.141 256.796 293.818 258.729 289.856 258.794C289.856 258.794 289.216 258.794 289.212 258.794C289.212 258.794 262.996 258.778 254.485 258.778C232.575 258.778 208.121 243.734 204.957 243.103C199.778 242.068 197.709 252.416 192.529 263.277C187.35 274.141 143.854 311.389 143.854 311.389C143.854 311.389 137.17 311.455 134.409 310.419C131.438 309.306 130.352 307.861 130.352 307.861C130.352 307.861 178.548 212.065 194.603 206.891Z" fill="#011043"/>
<path d="M241.713 168.668C242.372 212.81 241.893 203.583 246.724 207.775C247.892 208.782 251.166 209.383 255.472 209.666C269.023 210.567 292.839 208.335 293.744 205.834C296.871 197.18 294.662 194.491 297.268 181.24C297.543 179.831 297.879 178.304 298.272 176.642C300.448 167.542 302.562 164.447 294.85 149.825C287.856 136.582 280.591 125.832 279.935 126.221C261.241 143.362 259.996 127.965 259.996 127.965C259.996 127.965 241.389 147.135 241.713 168.668Z" fill="url(#paint0_linear)"/>
<path d="M194.418 282.484L208.604 320.625C208.604 320.625 212.452 320.993 216.14 319.937C219.533 318.955 223.429 316.392 223.429 316.392C223.429 316.392 219.488 275.443 212.141 251.937L194.418 282.484Z" fill="#011043"/>
<path d="M259.996 127.961C259.996 127.961 242.865 128.869 238.967 137.788C235.173 146.469 223.429 195.522 223.429 195.522C223.429 195.522 233.079 197.258 237.541 192.804C242 188.346 253.055 151.471 253.055 151.471L259.996 127.961Z" fill="url(#paint1_linear)"/>
<path d="M255.473 209.666C269.023 210.567 292.839 208.335 293.744 205.834C296.871 197.18 294.662 194.491 297.268 181.24L290.737 162.855C290.737 162.855 291.814 183.327 285.775 188.71C279.735 194.094 261.033 199.104 258.095 203.603C256.677 205.765 255.743 207.926 255.473 209.666Z" fill="#E95375"/>
<path d="M270.994 200.613C270.994 200.613 257.628 197.641 255.473 198.824C253.317 200.011 248.048 204.326 247.384 205.828C246.724 207.331 252.186 204.686 253.965 204.211C255.112 203.904 258.144 204.952 259.64 205.452C265.95 207.556 269.814 206.475 269.814 206.475L270.994 200.613Z" fill="#FFBD9A"/>
<path d="M193.226 200.613C193.226 200.613 179.86 197.641 177.704 198.824C175.549 200.011 170.279 204.326 169.616 205.828C168.956 207.331 174.418 204.686 176.196 204.211C177.344 203.904 180.376 204.952 181.872 205.452C188.182 207.556 192.046 206.475 192.046 206.475L193.226 200.613Z" fill="#FFBD9A"/>
<path d="M279.948 126.209C279.948 126.209 293.54 126.209 297.995 135.001C305.791 147.821 330.205 200.091 320.26 207.022C309.061 214.82 269.298 209.06 269.298 209.06C269.298 209.06 267.975 202.883 269.814 199.891C271.658 196.902 301.575 192.076 302.956 190.696C304.337 189.317 285.697 163.793 285.697 159.654C285.697 155.515 279.948 126.209 279.948 126.209Z" fill="url(#paint2_linear)"/>
<path d="M238.561 199.891C226.061 206 189.021 209.06 189.021 209.06C189.021 209.06 187.698 202.883 189.538 199.89C191.381 196.902 224.68 184.88 226.061 183.5C233.561 160 257.061 168.5 238.561 199.891Z" fill="url(#paint3_linear)"/>
<path d="M275.149 197.436L303.934 190.57L289.879 167.451" stroke="#E95375" stroke-width="0.936444" stroke-miterlimit="10"/>
<path d="M303.62 190.864L310.985 190.115" stroke="#E95375" stroke-width="0.936444" stroke-miterlimit="10"/>
<path d="M266.982 72.9308C263.973 76.8579 267.011 82.4883 270.399 86.0929C273.787 89.6969 277.919 93.8837 276.937 98.7345C275.799 104.358 268.065 107.892 269.153 113.526C269.551 115.583 271.151 117.348 271.138 119.443C271.114 123.224 266.21 125.013 264.769 128.507C262.795 133.297 268.047 138.144 268.077 143.325C268.094 146.267 266.403 148.994 266.285 151.934C266.044 157.957 273.118 162.436 278.969 161.013C284.819 159.588 288.872 153.925 290.201 148.046C291.53 142.167 290.651 136.04 289.768 130.079C290.325 132.622 294.175 133.134 296.076 131.355C297.977 129.576 298.232 126.635 297.833 124.061C296.832 117.608 292.656 112.111 290.703 105.88C288.997 100.434 289.042 94.618 288.328 88.9551C287.614 83.2923 285.921 77.3806 281.643 73.6069C277.365 69.8339 269.901 69.3011 266.367 73.78" fill="#17282F"/>
<path d="M282.236 160.348C282.24 160.344 282.193 160.269 282.098 160.125C281.992 159.967 281.851 159.758 281.671 159.491C281.323 158.919 280.821 158.059 280.377 156.864C279.939 155.674 279.548 154.145 279.481 152.339C279.427 150.545 279.663 148.449 280.576 146.369C281.463 144.271 283.021 142.294 284.668 140.175C285.487 139.107 286.331 137.992 287.056 136.74C287.777 135.486 288.338 134.084 288.634 132.578C288.904 131.078 288.899 129.428 288.259 127.92C287.935 127.175 287.464 126.482 286.883 125.897C286.301 125.313 285.641 124.814 284.975 124.329C283.656 123.373 282.238 122.404 281.506 120.902C280.767 119.412 280.784 117.625 281.198 115.971C282.006 112.576 284.36 109.955 285.866 107.011C286.629 105.544 287.195 103.958 287.267 102.339C287.364 100.722 286.985 99.1497 286.391 97.7447C285.167 94.9197 283.147 92.739 281.155 90.9452C279.151 89.1418 277.173 87.6063 275.546 86.0099C273.907 84.4297 272.633 82.7873 271.843 81.1611C271.031 79.5485 270.659 78.0075 270.577 76.7437C270.485 75.4746 270.676 74.4867 270.867 73.8484C271.054 73.2054 271.212 72.8855 271.19 72.8761C271.19 72.8761 271.01 73.1851 270.799 73.8274C270.585 74.465 270.368 75.4624 270.441 76.7518C270.503 78.0359 270.86 79.6052 271.666 81.2483C272.45 82.9049 273.732 84.5859 275.372 86.1877C277 87.8078 278.976 89.3596 280.959 91.1615C282.931 92.952 284.907 95.111 286.093 97.8711C286.668 99.2444 287.029 100.766 286.932 102.32C286.859 103.877 286.312 105.411 285.56 106.853C284.808 108.302 283.864 109.684 282.973 111.137C282.071 112.582 281.283 114.165 280.857 115.887C280.43 117.589 280.403 119.468 281.192 121.057C281.98 122.663 283.463 123.659 284.773 124.609C285.437 125.089 286.081 125.578 286.641 126.137C287.198 126.697 287.64 127.346 287.95 128.052C288.559 129.478 288.574 131.061 288.316 132.519C288.032 133.982 287.489 135.356 286.787 136.586C286.081 137.817 285.248 138.929 284.437 139.997C282.804 142.119 281.237 144.128 280.348 146.27C279.432 148.399 279.211 150.529 279.284 152.348C279.371 154.177 279.787 155.718 280.249 156.914C280.717 158.112 281.243 158.967 281.613 159.53C281.804 159.808 281.966 160.009 282.069 160.146C282.174 160.283 282.231 160.352 282.236 160.348Z" fill="#33535F"/>
<path d="M254.825 202.985C254.825 202.985 252.027 206.595 251.109 207.025C250.191 207.455 249.597 207.349 249.597 207.349L251.482 203.955L254.825 202.985Z" fill="#FFB27D"/>
<path d="M255.473 198.823L247.331 202.773C247.331 202.773 247.679 203.338 248.679 203.293C249.683 203.248 252.211 202.323 252.211 202.323L255.473 198.823Z" fill="#FFBD9A"/>
<path d="M241.995 159.527L241.995 177.779C242.275 182.099 242.373 186.986 242.543 191.104" stroke="#E95375" stroke-width="0.936444" stroke-miterlimit="10"/>
<path d="M78.8427 364H82.7069C83.2884 364 83.8037 363.519 83.9448 362.838L113.848 223.016L115.561 215H98.0496L96.9358 223.016L77.5789 362.197C77.4459 363.139 78.0533 364 78.8427 364Z" fill="#D6E5F8"/>
<path d="M317.561 215L319.318 223.016L350.008 362.838C350.152 363.519 350.681 364 351.279 364H355.245C356.055 364 356.678 363.139 356.542 362.196L336.675 223.016L335.532 215H317.561Z" fill="#D6E5F8"/>
<path d="M335.424 215H317.561L319.307 223H336.561L335.424 215Z" fill="#BED1E8"/>
<path d="M97.0605 223H113.906L115.561 215H98.0605L97.0605 223Z" fill="#BED1E8"/>
<path d="M74.265 215H356.856C358.902 215 360.561 212.985 360.561 210.5C360.561 208.015 358.902 206 356.856 206H74.265C72.2193 206 70.5605 208.015 70.5605 210.5C70.5605 212.985 72.2193 215 74.265 215Z" fill="#D6E5F8"/>
<path d="M107.925 190.166H211.644C212.994 190.166 214.037 188.978 213.862 187.638L204.735 117.947C204.588 116.833 203.64 116 202.517 116H98.7981C97.4467 116 96.4047 117.188 96.5795 118.527L105.707 188.219C105.853 189.332 106.802 190.166 107.925 190.166Z" fill="#BED1E8"/>
<path d="M154.712 205.795H173.219L163.723 133.284C163.599 132.338 162.792 131.63 161.838 131.63H147.165C146.018 131.63 145.131 132.639 145.28 133.777L154.712 205.795Z" fill="#9CB1CB"/>
<path d="M152.261 205.795H170.767L161.27 133.284C161.147 132.338 160.34 131.63 159.386 131.63H144.713C143.565 131.63 142.679 132.639 142.829 133.777L152.261 205.795Z" fill="#D5E5F8"/>
<path d="M132.561 206H192.561V203.661C192.561 203.296 192.241 203 191.846 203H133.275C132.88 203 132.561 203.296 132.561 203.661V206Z" fill="#BED1E8"/>
</g>
<defs>
<linearGradient id="paint0_linear" x1="270.997" y1="122.614" x2="270.997" y2="214.769" gradientUnits="userSpaceOnUse">
<stop stop-color="#FFA68D"/>
<stop offset="1" stop-color="#FD3A84"/>
</linearGradient>
<linearGradient id="paint1_linear" x1="241.713" y1="125.042" x2="241.713" y2="199.832" gradientUnits="userSpaceOnUse">
<stop stop-color="#FFA68D"/>
<stop offset="1" stop-color="#FD3A84"/>
</linearGradient>
<linearGradient id="paint2_linear" x1="296.042" y1="122.559" x2="296.042" y2="216.081" gradientUnits="userSpaceOnUse">
<stop stop-color="#FFA68D"/>
<stop offset="1" stop-color="#FD3A84"/>
</linearGradient>
<linearGradient id="paint3_linear" x1="215.765" y1="122.559" x2="215.765" y2="216.081" gradientUnits="userSpaceOnUse">
<stop stop-color="#FFA68D"/>
<stop offset="1" stop-color="#FD3A84"/>
</linearGradient>
<clipPath id="clip0">
<rect width="390" height="364" fill="white" transform="matrix(-1 0 0 1 390 0)"/>
</clipPath>
</defs>
</svg>
